<?xml version="1.0" encoding="utf-8"?>
<!-- Generator: Adobe Illustrator 26.0.2, SVG Export Plug-In . SVG Version: 6.00 Build 0)  -->
<svg version="1.1" id="Слой_1" xmlns="http://www.w3.org/2000/svg" xmlns:xlink="http://www.w3.org/1999/xlink" x="0px" y="0px"
	 viewBox="0 0 159 44" style="enable-background:new 0 0 159 44;" xml:space="preserve">
<style type="text/css">
	.st0{fill:#7653FC;}
</style>
<path class="st0" d="M71.1,23.7c0,2.2-0.4,4.2-1.1,5.8c-0.7,1.6-1.8,2.9-3.3,3.8c-1.5,0.9-3.4,1.4-5.8,1.4c-2.3,0-4.2-0.5-5.8-1.4
	c-1.5-0.9-2.6-2.2-3.4-3.9c-0.7-1.7-1.1-3.6-1.1-5.8s0.4-4.1,1.1-5.8c0.7-1.6,1.9-2.9,3.4-3.8c1.5-0.9,3.5-1.4,5.8-1.4
	c2.3,0,4.2,0.5,5.7,1.4c1.5,0.9,2.6,2.2,3.3,3.8C70.8,19.5,71.1,21.5,71.1,23.7z M55.5,23.7c0,2.2,0.4,4,1.3,5.3
	c0.9,1.3,2.2,1.9,4.1,1.9c1.9,0,3.3-0.6,4.2-1.9c0.8-1.3,1.3-3.1,1.3-5.3c0-2.3-0.4-4-1.3-5.3c-0.8-1.3-2.2-1.9-4.1-1.9
	c-1.9,0-3.3,0.6-4.2,1.9C55.9,19.7,55.5,21.4,55.5,23.7z M101.6,13l-5.5,21.4H91l-2.9-11.2c-0.1-0.2-0.1-0.5-0.2-1
	c-0.1-0.4-0.2-0.9-0.3-1.4c-0.1-0.5-0.2-1-0.3-1.5c-0.1-0.5-0.1-0.9-0.2-1.1c0,0.3-0.1,0.6-0.2,1.1c-0.1,0.5-0.2,0.9-0.3,1.5
	c-0.1,0.5-0.2,1-0.3,1.4c-0.1,0.4-0.2,0.8-0.2,1l-2.9,11.2H78L72.6,13h4.5l2.7,11.7c0.1,0.5,0.2,1,0.4,1.7c0.1,0.7,0.3,1.4,0.4,2.1
	c0.1,0.7,0.2,1.3,0.3,1.8c0.1-0.5,0.2-1.1,0.3-1.8c0.1-0.7,0.2-1.4,0.4-2c0.1-0.7,0.3-1.2,0.4-1.5l3.1-12h4.3l3.1,12
	c0.1,0.3,0.2,0.8,0.3,1.5c0.1,0.7,0.3,1.3,0.4,2c0.1,0.7,0.2,1.3,0.3,1.8c0.1-0.5,0.2-1.1,0.3-1.8c0.1-0.7,0.2-1.4,0.4-2.1
	c0.2-0.7,0.3-1.3,0.4-1.7L97.1,13H101.6z M104.3,34.4V13h4.5v17.7h8.7v3.7H104.3z"/>
<path class="st0" d="M128.4,32.8c0.4,0,0.7,0,1-0.1c0.3,0,0.6-0.1,0.9-0.2v0.8c-0.3,0.1-0.5,0.2-0.9,0.2c-0.3,0.1-0.7,0.1-1.1,0.1
	c-1.1,0-1.9-0.3-2.4-0.9c-0.5-0.6-0.7-1.5-0.7-2.7v-8.5h-1.9v-0.6l1.9-0.2l0.3-3.1h0.6v3.1h4v0.8h-4v8.4c0,0.9,0.2,1.7,0.5,2.2
	C126.9,32.6,127.5,32.8,128.4,32.8z M143.4,27.1c0,1.3-0.2,2.4-0.6,3.4c-0.4,1-1,1.8-1.8,2.4c-0.8,0.6-1.9,0.8-3.1,0.8
	c-1.2,0-2.2-0.3-3-0.8c-0.8-0.6-1.4-1.3-1.9-2.3c-0.4-1-0.6-2.1-0.6-3.4c0-2,0.5-3.6,1.5-4.8c1-1.2,2.4-1.8,4.2-1.8
	c1.3,0,2.3,0.3,3.1,0.9c0.8,0.6,1.4,1.4,1.8,2.4C143.2,24.7,143.4,25.8,143.4,27.1z M133.2,27.1c0,1.7,0.4,3.1,1.1,4.2
	c0.8,1.1,1.9,1.6,3.5,1.6c1.1,0,2-0.2,2.6-0.7c0.7-0.5,1.2-1.2,1.5-2c0.3-0.9,0.5-1.9,0.5-3c0-1.1-0.2-2.1-0.5-2.9s-0.8-1.6-1.5-2.1
	c-0.7-0.5-1.5-0.8-2.6-0.8c-1.5,0-2.7,0.5-3.5,1.5C133.6,23.9,133.2,25.3,133.2,27.1z M152.5,20.5c1.7,0,2.9,0.6,3.8,1.7
	c0.9,1.1,1.3,2.7,1.3,4.8c0,2.1-0.5,3.8-1.4,5c-0.9,1.2-2.3,1.7-3.9,1.7c-1.2,0-2.2-0.3-2.9-0.8c-0.7-0.5-1.2-1.2-1.5-2h0
	c0,0.5,0,1,0,1.5c0,0.5,0,1,0,1.4v5.2H147V20.7h0.8l0.1,2.8h0c0.2-0.5,0.5-1,0.9-1.5c0.4-0.5,0.9-0.8,1.5-1.1
	C150.9,20.6,151.6,20.5,152.5,20.5z M152.4,21.3c-1.5,0-2.6,0.5-3.4,1.5c-0.7,1-1.1,2.4-1.1,4.2v0.1c0,1.9,0.4,3.4,1.1,4.3
	c0.8,0.9,1.8,1.4,3.2,1.4c1.4,0,2.5-0.5,3.3-1.5c0.8-1,1.2-2.5,1.2-4.3C156.7,23.2,155.2,21.3,152.4,21.3z"/>
<path class="st0" d="M41,1.7c0-0.7-0.5-1.2-1.2-1.2c-0.7,0-1.2,0.5-1.2,1.2c0,1.3-1.1,2.4-2.5,2.4h-5.4c-3.1-1.5-6.6-2.4-10.2-2.4
	s-7.1,0.8-10.2,2.4H4.9C3.5,4.1,2.4,3,2.4,1.7c0-0.7-0.5-1.2-1.2-1.2C0.5,0.6,0,1.1,0,1.7v3.5c0,2.2,0.9,4.2,2.5,5.8
	C0.9,13.7,0,16.6,0,19.4c0,9.8,9.2,17.7,20.5,17.7c11.3,0,20.5-7.9,20.5-17.7c0-2.9-0.9-5.7-2.5-8.3C40.1,9.6,41,7.6,41,5.3V1.7z
	 M20.5,4.1c1.9,0,3.8,0.3,5.6,0.8c-1.3,0.5-2.6,1.3-3.6,2.4c-0.8,0.8-1.5,1.7-2,2.6c-0.5-1-1.2-1.9-2-2.6c-1.1-1-2.3-1.8-3.6-2.4
	C16.7,4.4,18.6,4.1,20.5,4.1z M20.5,23.7c0.4,0.7,1,1.4,1.7,2l-1.7,3.1l-1.7-3.1C19.5,25.1,20.1,24.4,20.5,23.7z M13.3,25.3
	c-3.3,0-6-2.6-6-5.9s2.7-5.9,6-5.9c3.3,0,6,2.6,6,5.9S16.6,25.3,13.3,25.3z M21.7,19.4c0-0.1,0-0.2,0-0.3c0-0.1,0-0.1,0-0.2v0
	c0.2-3,2.8-5.4,6-5.4c3.3,0,6,2.6,6,5.9s-2.7,5.9-6,5.9C24.4,25.3,21.7,22.7,21.7,19.4z M2.4,5.8C3.2,6.2,4,6.5,4.9,6.5h5.7h0h0.3
	c2.2,0,4.4,0.9,6,2.4c1.3,1.3,2.1,2.9,2.4,4.7c-1.4-1.3-3.2-2.2-5.2-2.4c-0.1,0-0.2,0-0.3,0H8.5c-1.3,0-2.5-0.4-3.5-1.1
	C4.9,10,4.8,10,4.8,9.9c-0.1,0-0.1-0.1-0.2-0.1C3.4,8.8,2.6,7.4,2.4,5.8z M38.6,19.4c0,8.5-8.1,15.3-18.1,15.3S2.4,27.9,2.4,19.4
	c0-2.4,0.7-4.7,2-6.9c0.9,0.5,2,0.8,3.1,1c-1.6,1.5-2.6,3.6-2.6,6c0,4.6,3.8,8.3,8.4,8.3c1.3,0,2.5-0.3,3.5-0.8l2.6,4.9
	c0.2,0.4,0.6,0.6,1.1,0.6s0.9-0.2,1.1-0.6l2.6-4.9c1.1,0.5,2.3,0.8,3.5,0.8c4.6,0,8.4-3.7,8.4-8.3c0-2.3-1-4.5-2.6-6
	c1.1-0.1,2.1-0.5,3.1-1C37.9,14.7,38.6,17.1,38.6,19.4z M36.4,9.8c-0.1,0-0.1,0.1-0.1,0.1C36.2,10,36.1,10,36,10.1
	c-1,0.7-2.2,1.1-3.5,1.1h-5.3c-0.1,0-0.2,0-0.3,0c-2,0.2-3.8,1-5.2,2.4c0.2-1.8,1.1-3.4,2.4-4.7c1.6-1.6,3.7-2.4,5.9-2.4h0.3
	c0,0,0,0,0,0c0,0,0,0,0,0h5.7c0.9,0,1.7-0.2,2.5-0.6C38.4,7.4,37.6,8.8,36.4,9.8z"/>
<path class="st0" d="M13.5,16.7l1,2.6h3.3l-2.6,1.6l1,2.6l-2.6-1.6l-2.6,1.6l1-2.6l-2.6-1.6h3.3L13.5,16.7z"/>
<path class="st0" d="M27.5,16.7l1,2.6h3.3l-2.6,1.6l1,2.6l-2.6-1.6l-2.6,1.6l1-2.6l-2.6-1.6h3.3L27.5,16.7z"/>
<g>
	<g>
		<path class="st0" d="M52.8,6.5v3.9h-0.7V2.1h3c1.7,0,2.5,0.9,2.5,2.2c0,1.1-0.6,1.8-1.6,2C57,6.4,57.5,7,57.5,8.4v0.3
			c0,0.6,0,1.4,0.1,1.7H57c-0.2-0.4-0.1-1-0.1-1.8V8.5c0-1.4-0.4-2-2-2H52.8z M52.8,5.9h2c1.5,0,2.2-0.6,2.2-1.7c0-1-0.7-1.6-2-1.6
			h-2.2V5.9z"/>
		<path class="st0" d="M63.6,9.3c0,0.5,0,0.9,0.1,1.1h-0.6c0-0.1-0.1-0.4-0.1-0.9c-0.2,0.4-0.7,1.1-2,1.1c-1.4,0-2-0.9-2-1.8
			c0-1.3,1-1.9,2.8-1.9c0.5,0,0.9,0,1.1,0V6.3c0-0.6-0.2-1.4-1.5-1.4c-1.2,0-1.4,0.6-1.5,1.1h-0.6c0.1-0.7,0.5-1.7,2.1-1.7
			c1.4,0,2.1,0.6,2.1,1.9V9.3z M63,7.4c-0.2,0-0.8,0-1.2,0c-1.3,0-2.2,0.3-2.2,1.4c0,0.8,0.5,1.3,1.4,1.3c1.7,0,2-1.1,2-2.4V7.4z"/>
		<path class="st0" d="M64.7,4.5h1.1V2.6h0.6v1.9h1.4V5h-1.4v3.9c0,0.7,0.1,1.1,0.7,1.1c0.2,0,0.4,0,0.6-0.1v0.5
			c-0.2,0.1-0.5,0.1-0.7,0.1c-0.8,0-1.2-0.4-1.2-1.3V5h-1.1V4.5z"/>
		<path class="st0" d="M69,1.6h0.6v1.2H69V1.6z M69,4.5h0.6v6H69V4.5z"/>
		<path class="st0" d="M71.6,6c0-0.5,0-1,0-1.5h0.6c0,0.2,0,1,0,1.1c0.3-0.6,0.8-1.3,2-1.3c1.1,0,2,0.6,2,2.3v3.9h-0.6V6.7
			c0-1.1-0.4-1.8-1.5-1.8c-1.4,0-1.9,1.2-1.9,2.5v3.1h-0.6V6z"/>
		<path class="st0" d="M82.8,10.1c0,1.9-0.9,2.9-2.6,2.9c-1.6,0-2.2-0.9-2.4-1.8h0.6c0.2,0.8,0.9,1.2,1.8,1.2c1.6,0,2-1,2-2.5V9.3
			c-0.3,0.8-0.9,1.2-2,1.2c-1.4,0-2.5-1.1-2.5-3c0-2,1.2-3.1,2.6-3.1c1.2,0,1.8,0.6,1.9,1.1c0-0.3,0-0.8,0-0.9h0.6
			c0,0.2,0,1.2,0,1.7V10.1z M78.3,7.4c0,1.4,0.8,2.5,1.9,2.5c1.5,0,2-1,2-2.6c0-1.6-0.5-2.5-1.9-2.5C78.9,4.9,78.3,6.1,78.3,7.4z"/>
	</g>
</g>
</svg>
